<?xml version="1.0" encoding="UTF-8"?>
<!-- Generator: Adobe Illustrator 24.0.0, SVG Export Plug-In . SVG Version: 6.00 Build 0) -->
<svg xmlns="http://www.w3.org/2000/svg" xmlns:xlink="http://www.w3.org/1999/xlink" id="Layer_1" x="0px" y="0px" width="121px" height="121px" viewbox="0 0 121 121" xml:space="preserve">
<style type="text/css"> .st0{fill:#FFFFFF;} .st1{fill:url(#XMLID_2_);} .st2{fill:url(#XMLID_3_);} .st3{fill:url(#XMLID_4_);} .st4{fill:url(#XMLID_5_);} .st5{fill:url(#XMLID_6_);} .st6{fill:url(#XMLID_7_);} .st7{fill:url(#XMLID_8_);} .st8{fill:url(#XMLID_9_);} .st9{fill:url(#XMLID_10_);} .st10{fill:url(#XMLID_11_);} .st11{fill:url(#XMLID_12_);} .st12{fill:url(#XMLID_13_);} </style>
<g id="XMLID_1087_">
<linearGradient id="XMLID_2_" gradientUnits="userSpaceOnUse" x1="60.25" y1="142.6975" x2="60.25" y2="21.5231" gradientTransform="matrix(1 0 0 1 0 -22)">
<stop offset="0" style="stop-color:#F3010A"></stop>
<stop offset="1" style="stop-color:#FFC500"></stop>
</linearGradient>
<polygon id="XMLID_1101_" class="st1" points="41.5,102.2 60.3,120.9 79,102.2 "></polygon>
<linearGradient id="XMLID_3_" gradientUnits="userSpaceOnUse" x1="60.25" y1="142.303" x2="60.25" y2="21.7324" gradientTransform="matrix(1 0 0 1 0 -22)">
<stop offset="0" style="stop-color:#F3010A"></stop>
<stop offset="1" style="stop-color:#FFC500"></stop>
</linearGradient>
<path id="XMLID_1100_" class="st2" d="M79,100.3L61.5,82.9c-0.8,0.4-1.7,0.3-2.5-0.1l-17.5,17.4L79,100.3L79,100.3z"></path>
<linearGradient id="XMLID_4_" gradientUnits="userSpaceOnUse" x1="18.7" y1="142.9192" x2="18.7" y2="20.6023" gradientTransform="matrix(1 0 0 1 0 -22)">
<stop offset="0" style="stop-color:#F3010A"></stop>
<stop offset="1" style="stop-color:#FFC500"></stop>
</linearGradient>
<path id="XMLID_1099_" class="st3" d="M0.2,60.5l18.7,18.9L37.2,61c-0.1-0.1-0.1,0.4-0.2-0.5H0.2z"></path>
<linearGradient id="XMLID_5_" gradientUnits="userSpaceOnUse" x1="18.7" y1="143.2534" x2="18.7" y2="21.5946" gradientTransform="matrix(1 0 0 1 0 -22)">
<stop offset="0" style="stop-color:#F3010A"></stop>
<stop offset="1" style="stop-color:#FFC500"></stop>
</linearGradient>
<path id="XMLID_1098_" class="st4" d="M37.2,59L18.9,40.8L0.2,59.6H37C37.1,59.6,37.2,59.1,37.2,59z"></path>
<linearGradient id="XMLID_6_" gradientUnits="userSpaceOnUse" x1="39.4" y1="142.7155" x2="39.4" y2="21.039" gradientTransform="matrix(1 0 0 1 0 -22)">
<stop offset="0" style="stop-color:#F3010A"></stop>
<stop offset="1" style="stop-color:#FFC500"></stop>
</linearGradient>
<path id="XMLID_1097_" class="st5" d="M20.9,81.4l18.7,18.8l18.3-18.3c-0.1-0.1-0.1-0.5-0.2-0.5C57.7,81.4,20.9,81.4,20.9,81.4z"></path>
<linearGradient id="XMLID_7_" gradientUnits="userSpaceOnUse" x1="39.4" y1="141.7341" x2="39.4" y2="22.1175" gradientTransform="matrix(1 0 0 1 0 -22)">
<stop offset="0" style="stop-color:#F3010A"></stop>
<stop offset="1" style="stop-color:#FFC500"></stop>
</linearGradient>
<path id="XMLID_1096_" class="st6" d="M40.8,62.4c-0.8,0.4-1.7,0.2-2.5-0.2L20.9,79.5h36.8c0,0,0.1-0.1,0.2-0.2L40.8,62.4z"></path>
<linearGradient id="XMLID_8_" gradientUnits="userSpaceOnUse" x1="71.0875" y1="142.7083" x2="71.0875" y2="21.5337" gradientTransform="matrix(1 0 0 1 0 -22)">
<stop offset="0" style="stop-color:#F3010A"></stop>
<stop offset="1" style="stop-color:#FFC500"></stop>
</linearGradient>
<path id="XMLID_1095_" class="st7" d="M61.8,36.8c0,0-0.1,0.1,0.1,0.2l18.5-18.3L61.8,0V36.8z"></path>
<linearGradient id="XMLID_9_" gradientUnits="userSpaceOnUse" x1="50.4" y1="142.7084" x2="50.4" y2="21.5339" gradientTransform="matrix(1 0 0 1 0 -22)">
<stop offset="0" style="stop-color:#F3010A"></stop>
<stop offset="1" style="stop-color:#FFC500"></stop>
</linearGradient>
<path id="XMLID_1093_" class="st8" d="M59.9,36.8V0l-19,18.7L59.3,37C59.5,36.9,59.9,36.9,59.9,36.8z"></path>
<linearGradient id="XMLID_10_" gradientUnits="userSpaceOnUse" x1="49.55" y1="142.7084" x2="49.55" y2="21.5338" gradientTransform="matrix(1 0 0 1 0 -22)">
<stop offset="0" style="stop-color:#F3010A"></stop>
<stop offset="1" style="stop-color:#FFC500"></stop>
</linearGradient>
<path id="XMLID_1092_" class="st9" d="M58.2,38.2L40.9,20.7v36.8c0,0,0,0.1,0.2,0.2l17.1-17.1C57.8,39.9,57.8,38.9,58.2,38.2z"></path>
<linearGradient id="XMLID_11_" gradientUnits="userSpaceOnUse" x1="29.6" y1="142.7083" x2="29.6" y2="21.5337" gradientTransform="matrix(1 0 0 1 0 -22)">
<stop offset="0" style="stop-color:#F3010A"></stop>
<stop offset="1" style="stop-color:#FFC500"></stop>
</linearGradient>
<path id="XMLID_1091_" class="st10" d="M39,57.5V20.7L20.2,39.4l18.3,18.3C38.7,57.6,39,57.6,39,57.5z"></path>
<linearGradient id="XMLID_12_" gradientUnits="userSpaceOnUse" x1="60.45" y1="142.9593" x2="60.45" y2="20.5615" gradientTransform="matrix(1 0 0 1 0 -22)">
<stop offset="0" style="stop-color:#F3010A"></stop>
<stop offset="1" style="stop-color:#FFC500"></stop>
</linearGradient>
<path id="XMLID_1090_" class="st11" d="M61.5,78.2L79,60.5H42.1c0,0.9-0.1,0.5-0.2,0.6L59,78.2C59.8,77.8,60.7,77.8,61.5,78.2z"></path>
<linearGradient id="XMLID_13_" gradientUnits="userSpaceOnUse" x1="60.5" y1="143.7578" x2="60.5" y2="21.1043" gradientTransform="matrix(1 0 0 1 0 -22)">
<stop offset="0" style="stop-color:#F3010A"></stop>
<stop offset="1" style="stop-color:#FFC500"></stop>
</linearGradient>
<path id="XMLID_1088_" class="st12" d="M79,59.6L61.5,41.9c-0.8,0.4-1.7,0.3-2.5-0.1L42,59c0.1,0.1,0.1,0.5,0.2,0.5L79,59.6 L79,59.6z"></path>
</g>
</svg> 